STARTFONT 2.1
FONT -FontForge-Modern National Rail PIS Small-Book-R-Normal--8-80-75-75-P-34-ISO10646-1
SIZE 8 75 75
FONTBOUNDINGBOX 4 6 0 -1
COMMENT "Generated by fontforge, http://fontforge.sourceforge.net"
COMMENT "Copyright Epalvosh 2023"
STARTPROPERTIES 39
FOUNDRY "FontForge"
FAMILY_NAME "Modern National Rail PIS Small"
WEIGHT_NAME "Book"
SLANT "R"
SETWIDTH_NAME "Normal"
ADD_STYLE_NAME ""
PIXEL_SIZE 8
POINT_SIZE 80
RESOLUTION_X 75
RESOLUTION_Y 75
SPACING "P"
AVERAGE_WIDTH 34
CHARSET_REGISTRY "ISO10646"
CHARSET_ENCODING "1"
FONTNAME_REGISTRY ""
CHARSET_COLLECTIONS "ISO10646-1"
FONT_NAME "ModernNationalRailPISSmall"
FACE_NAME "Modern National Rail PIS Small Regular"
COPYRIGHT "Copyright Epalvosh 2023"
FONT_VERSION "1.0"
FONT_ASCENT 6
FONT_DESCENT 2
UNDERLINE_POSITION 1
UNDERLINE_THICKNESS 1
X_HEIGHT 3
CAP_HEIGHT 4
RAW_ASCENT 799
RAW_DESCENT 200
NORM_SPACE 3
RELATIVE_WEIGHT 40
RELATIVE_SETWIDTH 50
SUPERSCRIPT_X 0
SUPERSCRIPT_Y 4
SUPERSCRIPT_SIZE 4
SUBSCRIPT_X 0
SUBSCRIPT_Y -1
SUBSCRIPT_SIZE 4
AVG_LOWERCASE_WIDTH 39
AVG_UPPERCASE_WIDTH 39
ENDPROPERTIES
CHARS 134
STARTCHAR space
ENCODING 32
SWIDTH 363 0
DWIDTH 3 0
BBX 1 1 0 0
BITMAP
00
ENDCHAR
STARTCHAR exclam
ENCODING 33
SWIDTH 181 0
DWIDTH 1 0
BBX 1 5 0 0
BITMAP
80
80
80
80
80
ENDCHAR
STARTCHAR quotedbl
ENCODING 34
SWIDTH 363 0
DWIDTH 3 0
BBX 1 2 0 3
BITMAP
80
80
ENDCHAR
STARTCHAR numbersign
ENCODING 35
SWIDTH 545 0
DWIDTH 4 0
BBX 4 5 0 0
BITMAP
20
B0
20
A0
20
ENDCHAR
STARTCHAR percent
ENCODING 37
SWIDTH 545 0
DWIDTH 4 0
BBX 4 5 0 0
BITMAP
10
20
40
20
A0
ENDCHAR
STARTCHAR ampersand
ENCODING 38
SWIDTH 545 0
DWIDTH 4 0
BBX 4 4 0 0
BITMAP
80
00
80
50
ENDCHAR
STARTCHAR quotesingle
ENCODING 39
SWIDTH 272 0
DWIDTH 2 0
BBX 1 1 0 3
BITMAP
80
ENDCHAR
STARTCHAR parenleft
ENCODING 40
SWIDTH 363 0
DWIDTH 3 0
BBX 2 4 0 0
BITMAP
80
80
80
40
ENDCHAR
STARTCHAR parenright
ENCODING 41
SWIDTH 363 0
DWIDTH 3 0
BBX 2 5 0 0
BITMAP
80
00
40
00
80
ENDCHAR
STARTCHAR asterisk
ENCODING 42
SWIDTH 545 0
DWIDTH 4 0
BBX 4 4 0 0
BITMAP
20
F0
20
40
ENDCHAR
STARTCHAR plus
ENCODING 43
SWIDTH 545 0
DWIDTH 4 0
BBX 4 1 0 2
BITMAP
F0
ENDCHAR
STARTCHAR comma
ENCODING 44
SWIDTH 272 0
DWIDTH 2 0
BBX 1 1 0 -1
BITMAP
00
ENDCHAR
STARTCHAR hyphen
ENCODING 45
SWIDTH 545 0
DWIDTH 4 0
BBX 4 1 0 2
BITMAP
F0
ENDCHAR
STARTCHAR period
ENCODING 46
SWIDTH 181 0
DWIDTH 1 0
BBX 1 1 0 0
BITMAP
80
ENDCHAR
STARTCHAR slash
ENCODING 47
SWIDTH 545 0
DWIDTH 4 0
BBX 4 5 0 0
BITMAP
10
20
40
00
80
ENDCHAR
STARTCHAR zero
ENCODING 48
SWIDTH 545 0
DWIDTH 4 0
BBX 4 5 0 0
BITMAP
20
90
90
80
60
ENDCHAR
STARTCHAR one
ENCODING 49
SWIDTH 363 0
DWIDTH 3 0
BBX 2 1 0 0
BITMAP
C0
ENDCHAR
STARTCHAR two
ENCODING 50
SWIDTH 545 0
DWIDTH 4 0
BBX 4 5 0 0
BITMAP
20
10
20
00
F0
ENDCHAR
STARTCHAR three
ENCODING 51
SWIDTH 545 0
DWIDTH 4 0
BBX 3 5 1 0
BITMAP
40
20
C0
00
C0
ENDCHAR
STARTCHAR four
ENCODING 52
SWIDTH 545 0
DWIDTH 4 0
BBX 3 5 0 0
BITMAP
20
20
A0
A0
20
ENDCHAR
STARTCHAR five
ENCODING 53
SWIDTH 545 0
DWIDTH 4 0
BBX 4 5 0 0
BITMAP
B0
A0
10
00
60
ENDCHAR
STARTCHAR six
ENCODING 54
SWIDTH 545 0
DWIDTH 4 0
BBX 3 5 0 0
BITMAP
20
80
E0
80
60
ENDCHAR
STARTCHAR seven
ENCODING 55
SWIDTH 545 0
DWIDTH 4 0
BBX 4 5 0 0
BITMAP
B0
20
40
00
40
ENDCHAR
STARTCHAR eight
ENCODING 56
SWIDTH 545 0
DWIDTH 4 0
BBX 4 5 0 0
BITMAP
20
90
60
80
60
ENDCHAR
STARTCHAR nine
ENCODING 57
SWIDTH 545 0
DWIDTH 4 0
BBX 4 5 0 0
BITMAP
20
90
70
00
60
ENDCHAR
STARTCHAR colon
ENCODING 58
SWIDTH 181 0
DWIDTH 1 0
BBX 1 1 0 3
BITMAP
80
ENDCHAR
STARTCHAR semicolon
ENCODING 59
SWIDTH 272 0
DWIDTH 2 0
BBX 1 1 0 -1
BITMAP
00
ENDCHAR
STARTCHAR less
ENCODING 60
SWIDTH 363 0
DWIDTH 3 0
BBX 1 1 0 2
BITMAP
80
ENDCHAR
STARTCHAR equal
ENCODING 61
SWIDTH 545 0
DWIDTH 4 0
BBX 4 3 0 1
BITMAP
B0
00
A0
ENDCHAR
STARTCHAR greater
ENCODING 62
SWIDTH 363 0
DWIDTH 3 0
BBX 1 1 1 2
BITMAP
80
ENDCHAR
STARTCHAR question
ENCODING 63
SWIDTH 545 0
DWIDTH 4 0
BBX 3 5 1 0
BITMAP
40
20
40
00
80
ENDCHAR
STARTCHAR at
ENCODING 64
SWIDTH 545 0
DWIDTH 4 0
BBX 4 5 0 0
BITMAP
20
B0
F0
A0
60
ENDCHAR
STARTCHAR A
ENCODING 65
SWIDTH 545 0
DWIDTH 4 0
BBX 4 5 0 0
BITMAP
20
90
F0
80
90
ENDCHAR
STARTCHAR B
ENCODING 66
SWIDTH 545 0
DWIDTH 4 0
BBX 4 5 0 0
BITMAP
A0
90
E0
80
E0
ENDCHAR
STARTCHAR C
ENCODING 67
SWIDTH 545 0
DWIDTH 4 0
BBX 3 5 0 0
BITMAP
20
80
80
80
60
ENDCHAR
STARTCHAR D
ENCODING 68
SWIDTH 545 0
DWIDTH 4 0
BBX 4 5 0 0
BITMAP
A0
90
90
80
E0
ENDCHAR
STARTCHAR E
ENCODING 69
SWIDTH 545 0
DWIDTH 4 0
BBX 4 5 0 0
BITMAP
B0
80
E0
80
F0
ENDCHAR
STARTCHAR F
ENCODING 70
SWIDTH 545 0
DWIDTH 4 0
BBX 4 5 0 0
BITMAP
B0
80
E0
80
80
ENDCHAR
STARTCHAR G
ENCODING 71
SWIDTH 545 0
DWIDTH 4 0
BBX 4 5 0 0
BITMAP
20
80
F0
80
60
ENDCHAR
STARTCHAR H
ENCODING 72
SWIDTH 545 0
DWIDTH 4 0
BBX 4 5 0 0
BITMAP
90
90
F0
80
90
ENDCHAR
STARTCHAR I
ENCODING 73
SWIDTH 363 0
DWIDTH 3 0
BBX 2 5 0 0
BITMAP
80
00
00
00
C0
ENDCHAR
STARTCHAR J
ENCODING 74
SWIDTH 545 0
DWIDTH 4 0
BBX 3 5 1 0
BITMAP
20
20
20
00
C0
ENDCHAR
STARTCHAR K
ENCODING 75
SWIDTH 545 0
DWIDTH 4 0
BBX 4 5 0 0
BITMAP
90
80
80
80
90
ENDCHAR
STARTCHAR L
ENCODING 76
SWIDTH 545 0
DWIDTH 4 0
BBX 4 5 0 0
BITMAP
80
80
80
80
F0
ENDCHAR
STARTCHAR M
ENCODING 77
SWIDTH 545 0
DWIDTH 4 0
BBX 4 5 0 0
BITMAP
90
90
90
80
90
ENDCHAR
STARTCHAR N
ENCODING 78
SWIDTH 545 0
DWIDTH 4 0
BBX 4 5 0 0
BITMAP
90
90
B0
80
90
ENDCHAR
STARTCHAR O
ENCODING 79
SWIDTH 545 0
DWIDTH 4 0
BBX 4 5 0 0
BITMAP
20
90
90
80
60
ENDCHAR
STARTCHAR P
ENCODING 80
SWIDTH 545 0
DWIDTH 4 0
BBX 4 5 0 0
BITMAP
A0
90
E0
80
80
ENDCHAR
STARTCHAR Q
ENCODING 81
SWIDTH 545 0
DWIDTH 4 0
BBX 4 6 0 -1
BITMAP
20
90
90
80
60
20
ENDCHAR
STARTCHAR R
ENCODING 82
SWIDTH 545 0
DWIDTH 4 0
BBX 4 5 0 0
BITMAP
A0
90
E0
80
90
ENDCHAR
STARTCHAR S
ENCODING 83
SWIDTH 545 0
DWIDTH 4 0
BBX 3 5 0 0
BITMAP
20
80
60
00
60
ENDCHAR
STARTCHAR T
ENCODING 84
SWIDTH 545 0
DWIDTH 4 0
BBX 4 5 0 0
BITMAP
B0
00
40
00
40
ENDCHAR
STARTCHAR U
ENCODING 85
SWIDTH 545 0
DWIDTH 4 0
BBX 4 5 0 0
BITMAP
90
90
90
80
60
ENDCHAR
STARTCHAR V
ENCODING 86
SWIDTH 545 0
DWIDTH 4 0
BBX 4 5 0 0
BITMAP
90
90
90
80
40
ENDCHAR
STARTCHAR W
ENCODING 87
SWIDTH 545 0
DWIDTH 4 0
BBX 4 5 0 0
BITMAP
90
90
D0
80
90
ENDCHAR
STARTCHAR X
ENCODING 88
SWIDTH 545 0
DWIDTH 4 0
BBX 4 5 0 0
BITMAP
90
20
40
20
90
ENDCHAR
STARTCHAR Y
ENCODING 89
SWIDTH 545 0
DWIDTH 4 0
BBX 4 5 0 0
BITMAP
90
20
40
00
40
ENDCHAR
STARTCHAR Z
ENCODING 90
SWIDTH 545 0
DWIDTH 4 0
BBX 4 5 0 0
BITMAP
B0
20
40
00
F0
ENDCHAR
STARTCHAR bracketleft
ENCODING 91
SWIDTH 272 0
DWIDTH 2 0
BBX 1 5 0 0
BITMAP
80
80
80
80
80
ENDCHAR
STARTCHAR backslash
ENCODING 92
SWIDTH 545 0
DWIDTH 4 0
BBX 4 5 0 0
BITMAP
80
00
40
20
10
ENDCHAR
STARTCHAR bracketright
ENCODING 93
SWIDTH 272 0
DWIDTH 2 0
BBX 1 5 0 0
BITMAP
80
00
00
00
80
ENDCHAR
STARTCHAR asciicircum
ENCODING 94
SWIDTH 545 0
DWIDTH 4 0
BBX 4 1 0 3
BITMAP
90
ENDCHAR
STARTCHAR underscore
ENCODING 95
SWIDTH 545 0
DWIDTH 4 0
BBX 4 1 0 0
BITMAP
F0
ENDCHAR
STARTCHAR a
ENCODING 97
SWIDTH 545 0
DWIDTH 4 0
BBX 3 4 1 0
BITMAP
40
20
40
E0
ENDCHAR
STARTCHAR b
ENCODING 98
SWIDTH 545 0
DWIDTH 4 0
BBX 4 5 0 0
BITMAP
80
A0
90
80
E0
ENDCHAR
STARTCHAR c
ENCODING 99
SWIDTH 545 0
DWIDTH 4 0
BBX 4 4 0 0
BITMAP
30
80
80
70
ENDCHAR
STARTCHAR d
ENCODING 100
SWIDTH 545 0
DWIDTH 4 0
BBX 4 5 0 0
BITMAP
10
10
B0
80
70
ENDCHAR
STARTCHAR e
ENCODING 101
SWIDTH 545 0
DWIDTH 4 0
BBX 4 4 0 0
BITMAP
20
90
A0
70
ENDCHAR
STARTCHAR f
ENCODING 102
SWIDTH 454 0
DWIDTH 4 0
BBX 2 1 0 2
BITMAP
C0
ENDCHAR
STARTCHAR g
ENCODING 103
SWIDTH 545 0
DWIDTH 4 0
BBX 4 5 0 -1
BITMAP
30
90
80
70
10
ENDCHAR
STARTCHAR h
ENCODING 104
SWIDTH 545 0
DWIDTH 4 0
BBX 4 5 0 0
BITMAP
80
A0
90
80
90
ENDCHAR
STARTCHAR i
ENCODING 105
SWIDTH 363 0
DWIDTH 3 0
BBX 2 4 0 0
BITMAP
80
00
00
C0
ENDCHAR
STARTCHAR j
ENCODING 106
SWIDTH 454 0
DWIDTH 4 0
BBX 3 6 0 -1
BITMAP
20
20
20
20
20
A0
ENDCHAR
STARTCHAR k
ENCODING 107
SWIDTH 454 0
DWIDTH 4 0
BBX 3 5 0 0
BITMAP
80
A0
C0
80
A0
ENDCHAR
STARTCHAR l
ENCODING 108
SWIDTH 363 0
DWIDTH 3 0
BBX 2 5 0 0
BITMAP
80
00
00
00
C0
ENDCHAR
STARTCHAR m
ENCODING 109
SWIDTH 545 0
DWIDTH 4 0
BBX 4 4 0 0
BITMAP
20
D0
80
90
ENDCHAR
STARTCHAR n
ENCODING 110
SWIDTH 545 0
DWIDTH 4 0
BBX 4 4 0 0
BITMAP
A0
90
80
90
ENDCHAR
STARTCHAR o
ENCODING 111
SWIDTH 545 0
DWIDTH 4 0
BBX 4 4 0 0
BITMAP
20
90
80
60
ENDCHAR
STARTCHAR p
ENCODING 112
SWIDTH 545 0
DWIDTH 4 0
BBX 4 5 0 -1
BITMAP
A0
90
80
E0
80
ENDCHAR
STARTCHAR q
ENCODING 113
SWIDTH 545 0
DWIDTH 4 0
BBX 4 5 0 -1
BITMAP
30
90
80
70
10
ENDCHAR
STARTCHAR r
ENCODING 114
SWIDTH 545 0
DWIDTH 4 0
BBX 4 4 0 0
BITMAP
A0
90
80
80
ENDCHAR
STARTCHAR s
ENCODING 115
SWIDTH 545 0
DWIDTH 4 0
BBX 4 4 0 0
BITMAP
30
80
20
E0
ENDCHAR
STARTCHAR t
ENCODING 116
SWIDTH 454 0
DWIDTH 4 0
BBX 3 4 0 0
BITMAP
A0
00
00
60
ENDCHAR
STARTCHAR u
ENCODING 117
SWIDTH 545 0
DWIDTH 4 0
BBX 4 4 0 0
BITMAP
90
90
80
50
ENDCHAR
STARTCHAR v
ENCODING 118
SWIDTH 545 0
DWIDTH 4 0
BBX 4 4 0 0
BITMAP
90
90
80
40
ENDCHAR
STARTCHAR w
ENCODING 119
SWIDTH 545 0
DWIDTH 4 0
BBX 4 4 0 0
BITMAP
90
D0
80
20
ENDCHAR
STARTCHAR x
ENCODING 120
SWIDTH 545 0
DWIDTH 4 0
BBX 4 4 0 0
BITMAP
90
20
00
90
ENDCHAR
STARTCHAR y
ENCODING 121
SWIDTH 545 0
DWIDTH 4 0
BBX 4 5 0 -1
BITMAP
90
90
80
70
10
ENDCHAR
STARTCHAR z
ENCODING 122
SWIDTH 545 0
DWIDTH 4 0
BBX 4 4 0 0
BITMAP
B0
20
00
F0
ENDCHAR
STARTCHAR braceleft
ENCODING 123
SWIDTH 363 0
DWIDTH 3 0
BBX 2 3 0 0
BITMAP
80
00
40
ENDCHAR
STARTCHAR bar
ENCODING 124
SWIDTH 181 0
DWIDTH 1 0
BBX 1 5 0 0
BITMAP
80
80
80
80
80
ENDCHAR
STARTCHAR braceright
ENCODING 125
SWIDTH 363 0
DWIDTH 3 0
BBX 2 5 0 0
BITMAP
80
00
40
00
80
ENDCHAR
STARTCHAR asciitilde
ENCODING 126
SWIDTH 545 0
DWIDTH 4 0
BBX 4 2 0 2
BITMAP
10
A0
ENDCHAR
STARTCHAR exclamdown
ENCODING 161
SWIDTH 181 0
DWIDTH 1 0
BBX 1 5 0 -1
BITMAP
80
00
80
80
80
ENDCHAR
STARTCHAR cent
ENCODING 162
SWIDTH 90 0
DWIDTH 1 0
BBX 1 1 0 0
BITMAP
00
ENDCHAR
STARTCHAR sterling
ENCODING 163
SWIDTH 545 0
DWIDTH 4 0
BBX 4 5 0 0
BITMAP
20
00
E0
00
F0
ENDCHAR
STARTCHAR brokenbar
ENCODING 166
SWIDTH 181 0
DWIDTH 1 0
BBX 1 5 0 0
BITMAP
80
80
00
80
80
ENDCHAR
STARTCHAR section
ENCODING 167
SWIDTH 545 0
DWIDTH 4 0
BBX 2 5 1 0
BITMAP
40
00
40
40
C0
ENDCHAR
STARTCHAR copyright
ENCODING 169
SWIDTH 545 0
DWIDTH 4 0
BBX 4 5 0 0
BITMAP
20
B0
90
A0
60
ENDCHAR
STARTCHAR guillemotleft
ENCODING 171
SWIDTH 545 0
DWIDTH 4 0
BBX 3 3 0 1
BITMAP
20
C0
20
ENDCHAR
STARTCHAR logicalnot
ENCODING 172
SWIDTH 545 0
DWIDTH 4 0
BBX 4 1 0 2
BITMAP
F0
ENDCHAR
STARTCHAR uni00AD
ENCODING 173
SWIDTH 545 0
DWIDTH 4 0
BBX 4 1 0 2
BITMAP
F0
ENDCHAR
STARTCHAR registered
ENCODING 174
SWIDTH 545 0
DWIDTH 4 0
BBX 4 5 0 0
BITMAP
20
B0
D0
A0
60
ENDCHAR
STARTCHAR degree
ENCODING 176
SWIDTH 363 0
DWIDTH 3 0
BBX 1 1 1 3
BITMAP
00
ENDCHAR
STARTCHAR plusminus
ENCODING 177
SWIDTH 545 0
DWIDTH 4 0
BBX 4 4 0 0
BITMAP
B0
40
00
F0
ENDCHAR
STARTCHAR uni00B2
ENCODING 178
SWIDTH 363 0
DWIDTH 3 0
BBX 2 3 0 2
BITMAP
80
00
C0
ENDCHAR
STARTCHAR uni00B3
ENCODING 179
SWIDTH 363 0
DWIDTH 3 0
BBX 1 3 0 2
BITMAP
80
00
80
ENDCHAR
STARTCHAR paragraph
ENCODING 182
SWIDTH 545 0
DWIDTH 4 0
BBX 4 5 0 0
BITMAP
30
90
50
00
50
ENDCHAR
STARTCHAR periodcentered
ENCODING 183
SWIDTH 181 0
DWIDTH 1 0
BBX 1 1 0 2
BITMAP
80
ENDCHAR
STARTCHAR uni00B9
ENCODING 185
SWIDTH 272 0
DWIDTH 2 0
BBX 1 1 0 2
BITMAP
00
ENDCHAR
STARTCHAR guillemotright
ENCODING 187
SWIDTH 545 0
DWIDTH 4 0
BBX 3 3 1 1
BITMAP
40
A0
40
ENDCHAR
STARTCHAR questiondown
ENCODING 191
SWIDTH 545 0
DWIDTH 4 0
BBX 4 2 0 -1
BITMAP
80
90
ENDCHAR
STARTCHAR multiply
ENCODING 215
SWIDTH 545 0
DWIDTH 4 0
BBX 2 3 1 1
BITMAP
40
80
40
ENDCHAR
STARTCHAR divide
ENCODING 247
SWIDTH 545 0
DWIDTH 4 0
BBX 4 1 0 2
BITMAP
F0
ENDCHAR
STARTCHAR uni1E9E
ENCODING 7838
SWIDTH 545 0
DWIDTH 4 0
BBX 3 4 0 0
BITMAP
A0
C0
A0
E0
ENDCHAR
STARTCHAR emdash
ENCODING 8212
SWIDTH 545 0
DWIDTH 4 0
BBX 4 1 0 2
BITMAP
F0
ENDCHAR
STARTCHAR quoteleft
ENCODING 8216
SWIDTH 272 0
DWIDTH 2 0
BBX 1 1 0 3
BITMAP
80
ENDCHAR
STARTCHAR quoteright
ENCODING 8217
SWIDTH 272 0
DWIDTH 2 0
BBX 1 1 0 3
BITMAP
80
ENDCHAR
STARTCHAR quotesinglbase
ENCODING 8218
SWIDTH 272 0
DWIDTH 2 0
BBX 1 1 0 -1
BITMAP
00
ENDCHAR
STARTCHAR quotereversed
ENCODING 8219
SWIDTH 272 0
DWIDTH 2 0
BBX 1 2 0 -1
BITMAP
80
80
ENDCHAR
STARTCHAR quotedblleft
ENCODING 8220
SWIDTH 454 0
DWIDTH 4 0
BBX 3 2 0 3
BITMAP
80
20
ENDCHAR
STARTCHAR quotedblright
ENCODING 8221
SWIDTH 454 0
DWIDTH 4 0
BBX 3 2 0 3
BITMAP
20
80
ENDCHAR
STARTCHAR quotedblbase
ENCODING 8222
SWIDTH 454 0
DWIDTH 4 0
BBX 1 2 2 -1
BITMAP
80
80
ENDCHAR
STARTCHAR dagger
ENCODING 8224
SWIDTH 363 0
DWIDTH 3 0
BBX 1 1 0 3
BITMAP
80
ENDCHAR
STARTCHAR bullet
ENCODING 8226
SWIDTH 181 0
DWIDTH 1 0
BBX 1 1 0 2
BITMAP
80
ENDCHAR
STARTCHAR ellipsis
ENCODING 8230
SWIDTH 545 0
DWIDTH 4 0
BBX 4 1 0 0
BITMAP
D0
ENDCHAR
STARTCHAR guilsinglleft
ENCODING 8249
SWIDTH 272 0
DWIDTH 2 0
BBX 1 1 0 2
BITMAP
80
ENDCHAR
STARTCHAR guilsinglright
ENCODING 8250
SWIDTH 272 0
DWIDTH 2 0
BBX 1 3 0 1
BITMAP
80
00
80
ENDCHAR
STARTCHAR fraction
ENCODING 8260
SWIDTH 545 0
DWIDTH 4 0
BBX 4 5 0 0
BITMAP
10
20
40
00
80
ENDCHAR
STARTCHAR uni2074
ENCODING 8308
SWIDTH 363 0
DWIDTH 3 0
BBX 2 2 0 2
BITMAP
80
40
ENDCHAR
STARTCHAR Euro
ENCODING 8364
SWIDTH 545 0
DWIDTH 4 0
BBX 3 5 0 0
BITMAP
20
A0
00
A0
60
ENDCHAR
STARTCHAR minus
ENCODING 8722
SWIDTH 545 0
DWIDTH 4 0
BBX 4 1 0 2
BITMAP
F0
ENDCHAR
STARTCHAR uni2215
ENCODING 8725
SWIDTH 363 0
DWIDTH 3 0
BBX 1 1 0 0
BITMAP
80
ENDCHAR
STARTCHAR .notdef
ENCODING -1
SWIDTH 580 0
DWIDTH 5 0
BBX 4 5 0 0
BITMAP
80
00
00
00
10
ENDCHAR
ENDFONT
