STARTFONT 2.1
FONT -FontForge-S Stock PIS-Book-R-Normal--16-150-75-75-P-74-ISO10646-1
SIZE 15 75 75
FONTBOUNDINGBOX 16 15 0 -3
COMMENT "Generated by fontforge, http://fontforge.sourceforge.net"
COMMENT "Copyright Epalvosh 2023"
STARTPROPERTIES 39
FOUNDRY "FontForge"
FAMILY_NAME "S Stock PIS"
WEIGHT_NAME "Book"
SLANT "R"
SETWIDTH_NAME "Normal"
ADD_STYLE_NAME ""
PIXEL_SIZE 16
POINT_SIZE 150
RESOLUTION_X 75
RESOLUTION_Y 75
SPACING "P"
AVERAGE_WIDTH 74
CHARSET_REGISTRY "ISO10646"
CHARSET_ENCODING "1"
FONTNAME_REGISTRY ""
CHARSET_COLLECTIONS "ISO10646-1"
FONT_NAME "SStockPIS"
FACE_NAME "S Stock PIS Regular"
COPYRIGHT "Copyright Epalvosh 2023"
FONT_VERSION "1.0"
FONT_ASCENT 13
FONT_DESCENT 3
UNDERLINE_POSITION 1
UNDERLINE_THICKNESS 1
X_HEIGHT 8
CAP_HEIGHT 11
RAW_ASCENT 799
RAW_DESCENT 200
NORM_SPACE 4
RELATIVE_WEIGHT 40
RELATIVE_SETWIDTH 50
SUPERSCRIPT_X 0
SUPERSCRIPT_Y 8
SUPERSCRIPT_SIZE 8
SUBSCRIPT_X 0
SUBSCRIPT_Y -2
SUBSCRIPT_SIZE 8
AVG_LOWERCASE_WIDTH 78
AVG_UPPERCASE_WIDTH 101
ENDPROPERTIES
CHARS 134
STARTCHAR space
ENCODING 32
SWIDTH 277 0
DWIDTH 4 0
BBX 1 1 0 0
BITMAP
00
ENDCHAR
STARTCHAR exclam
ENCODING 33
SWIDTH 166 0
DWIDTH 3 0
BBX 2 12 0 0
BITMAP
C0
C0
C0
C0
C0
C0
C0
C0
C0
00
C0
C0
ENDCHAR
STARTCHAR quotedbl
ENCODING 34
SWIDTH 333 0
DWIDTH 5 0
BBX 4 3 0 9
BITMAP
C0
C0
D0
ENDCHAR
STARTCHAR numbersign
ENCODING 35
SWIDTH 833 0
DWIDTH 13 0
BBX 12 12 0 0
BITMAP
0300
0660
0660
3FF0
3FF0
0980
0180
0300
C3C0
2600
6C00
6C00
ENDCHAR
STARTCHAR percent
ENCODING 37
SWIDTH 777 0
DWIDTH 12 0
BBX 12 12 0 0
BITMAP
4000
E060
C8E0
C9C0
FB80
7700
0600
01C0
0300
6320
E3F0
C1E0
ENDCHAR
STARTCHAR ampersand
ENCODING 38
SWIDTH 722 0
DWIDTH 12 0
BBX 11 11 0 0
BITMAP
6600
6600
6600
7E00
3C00
60C0
C1C0
C300
E780
7DC0
38E0
ENDCHAR
STARTCHAR quotesingle
ENCODING 39
SWIDTH 166 0
DWIDTH 3 0
BBX 2 4 0 8
BITMAP
C0
C0
40
80
ENDCHAR
STARTCHAR parenleft
ENCODING 40
SWIDTH 277 0
DWIDTH 4 0
BBX 3 14 0 -3
BITMAP
60
60
C0
C0
C0
C0
C0
C0
C0
C0
C0
60
60
20
ENDCHAR
STARTCHAR parenright
ENCODING 41
SWIDTH 277 0
DWIDTH 4 0
BBX 4 15 0 -3
BITMAP
C0
60
60
30
30
30
20
00
00
20
30
30
60
60
C0
ENDCHAR
STARTCHAR asterisk
ENCODING 42
SWIDTH 444 0
DWIDTH 7 0
BBX 6 5 0 6
BITMAP
40
30
FC
30
58
ENDCHAR
STARTCHAR plus
ENCODING 43
SWIDTH 388 0
DWIDTH 6 0
BBX 4 5 0 1
BITMAP
20
00
C0
20
30
ENDCHAR
STARTCHAR comma
ENCODING 44
SWIDTH 166 0
DWIDTH 3 0
BBX 2 4 0 -2
BITMAP
C0
C0
40
80
ENDCHAR
STARTCHAR hyphen
ENCODING 45
SWIDTH 277 0
DWIDTH 4 0
BBX 2 1 0 3
BITMAP
C0
ENDCHAR
STARTCHAR period
ENCODING 46
SWIDTH 166 0
DWIDTH 3 0
BBX 2 2 0 0
BITMAP
C0
C0
ENDCHAR
STARTCHAR slash
ENCODING 47
SWIDTH 555 0
DWIDTH 9 0
BBX 8 12 0 0
BITMAP
03
06
0E
0C
0C
08
00
00
00
60
60
E0
ENDCHAR
STARTCHAR zero
ENCODING 48
SWIDTH 555 0
DWIDTH 9 0
BBX 8 11 0 0
BITMAP
66
66
C3
C3
C3
C3
C3
C3
66
7E
3C
ENDCHAR
STARTCHAR one
ENCODING 49
SWIDTH 277 0
DWIDTH 4 0
BBX 4 11 0 0
BITMAP
60
F0
F0
B0
30
20
00
00
20
30
30
ENDCHAR
STARTCHAR two
ENCODING 50
SWIDTH 500 0
DWIDTH 8 0
BBX 7 12 0 0
BITMAP
40
E4
CE
86
06
0E
04
00
40
E0
FE
FE
ENDCHAR
STARTCHAR three
ENCODING 51
SWIDTH 555 0
DWIDTH 9 0
BBX 8 12 0 0
BITMAP
C3
E7
07
0E
0C
18
06
03
43
E7
7E
3C
ENDCHAR
STARTCHAR four
ENCODING 52
SWIDTH 610 0
DWIDTH 10 0
BBX 9 12 0 0
BITMAP
0200
0600
0E00
1E00
3600
7600
E600
C380
0200
0600
0600
0600
ENDCHAR
STARTCHAR five
ENCODING 53
SWIDTH 555 0
DWIDTH 9 0
BBX 8 12 0 0
BITMAP
C3
E6
C0
C0
FC
FE
87
03
43
E7
7E
3C
ENDCHAR
STARTCHAR six
ENCODING 54
SWIDTH 555 0
DWIDTH 9 0
BBX 8 11 0 0
BITMAP
20
70
E0
DC
FE
E7
C3
C3
E7
7E
3C
ENDCHAR
STARTCHAR seven
ENCODING 55
SWIDTH 555 0
DWIDTH 9 0
BBX 8 12 0 0
BITMAP
C3
E7
07
06
0E
0C
04
00
00
20
30
70
ENDCHAR
STARTCHAR eight
ENCODING 56
SWIDTH 555 0
DWIDTH 9 0
BBX 8 11 0 0
BITMAP
66
66
66
66
3C
66
C3
C3
E7
7E
3C
ENDCHAR
STARTCHAR nine
ENCODING 57
SWIDTH 555 0
DWIDTH 9 0
BBX 8 11 0 0
BITMAP
66
E7
C3
C3
C3
E7
43
03
06
0C
38
ENDCHAR
STARTCHAR colon
ENCODING 58
SWIDTH 166 0
DWIDTH 3 0
BBX 2 9 0 0
BITMAP
C0
C0
00
00
00
00
00
C0
C0
ENDCHAR
STARTCHAR semicolon
ENCODING 59
SWIDTH 166 0
DWIDTH 3 0
BBX 2 11 0 -2
BITMAP
C0
C0
00
00
00
00
00
C0
C0
40
80
ENDCHAR
STARTCHAR less
ENCODING 60
SWIDTH 388 0
DWIDTH 6 0
BBX 5 4 0 4
BITMAP
18
30
60
C0
ENDCHAR
STARTCHAR equal
ENCODING 61
SWIDTH 388 0
DWIDTH 6 0
BBX 3 4 0 2
BITMAP
E0
C0
C0
E0
ENDCHAR
STARTCHAR greater
ENCODING 62
SWIDTH 388 0
DWIDTH 6 0
BBX 4 6 0 2
BITMAP
E0
70
20
00
40
E0
ENDCHAR
STARTCHAR question
ENCODING 63
SWIDTH 500 0
DWIDTH 8 0
BBX 7 11 0 0
BITMAP
64
EE
C6
06
0E
04
00
00
00
10
10
ENDCHAR
STARTCHAR at
ENCODING 64
SWIDTH 722 0
DWIDTH 12 0
BBX 11 12 0 0
BITMAP
0200
2780
71C0
6EC0
DF60
D360
C760
C340
4380
6040
3FC0
0F00
ENDCHAR
STARTCHAR A
ENCODING 65
SWIDTH 666 0
DWIDTH 11 0
BBX 10 11 0 0
BITMAP
0400
1600
1600
3300
3300
2300
4180
4380
C0C0
C0C0
C0C0
ENDCHAR
STARTCHAR B
ENCODING 66
SWIDTH 555 0
DWIDTH 9 0
BBX 8 12 0 0
BITMAP
C0
E4
CE
C6
CE
FC
E6
C3
C3
C7
FE
FC
ENDCHAR
STARTCHAR C
ENCODING 67
SWIDTH 666 0
DWIDTH 11 0
BBX 10 12 0 0
BITMAP
0300
27C0
70C0
6000
C000
C000
C000
C000
4000
60C0
3FC0
0F00
ENDCHAR
STARTCHAR D
ENCODING 68
SWIDTH 666 0
DWIDTH 11 0
BBX 10 12 0 0
BITMAP
C000
E700
C380
C180
C0C0
C0C0
C0C0
C0C0
C180
C380
FF00
FC00
ENDCHAR
STARTCHAR E
ENCODING 69
SWIDTH 555 0
DWIDTH 9 0
BBX 8 12 0 0
BITMAP
C2
E6
C0
C0
C0
FC
E4
C0
C0
C0
FF
FF
ENDCHAR
STARTCHAR F
ENCODING 70
SWIDTH 500 0
DWIDTH 8 0
BBX 7 12 0 0
BITMAP
C2
E6
C0
C0
C0
FC
E4
C0
C0
C0
C0
C0
ENDCHAR
STARTCHAR G
ENCODING 71
SWIDTH 666 0
DWIDTH 11 0
BBX 10 12 0 0
BITMAP
0300
27C0
70C0
6000
C000
C000
C7C0
C3C0
40C0
60C0
3FC0
0F00
ENDCHAR
STARTCHAR H
ENCODING 72
SWIDTH 610 0
DWIDTH 10 0
BBX 9 12 0 0
BITMAP
C180
C180
C180
C180
C180
FF80
E780
C180
C180
C180
C180
C180
ENDCHAR
STARTCHAR I
ENCODING 73
SWIDTH 166 0
DWIDTH 3 0
BBX 2 12 0 0
BITMAP
C0
C0
C0
C0
C0
C0
C0
C0
C0
C0
C0
C0
ENDCHAR
STARTCHAR J
ENCODING 74
SWIDTH 500 0
DWIDTH 8 0
BBX 7 12 0 0
BITMAP
02
06
06
06
06
06
06
02
42
E6
7C
38
ENDCHAR
STARTCHAR K
ENCODING 75
SWIDTH 666 0
DWIDTH 11 0
BBX 10 12 0 0
BITMAP
C380
C700
CE00
CC00
D800
F000
E000
C000
C200
C700
C380
C1C0
ENDCHAR
STARTCHAR L
ENCODING 76
SWIDTH 500 0
DWIDTH 8 0
BBX 7 12 0 0
BITMAP
C0
C0
C0
C0
C0
C0
C0
C0
C0
C0
FE
FE
ENDCHAR
STARTCHAR M
ENCODING 77
SWIDTH 777 0
DWIDTH 12 0
BBX 12 12 0 0
BITMAP
C000
E060
F0F0
F1F0
DBB0
CF30
C620
C000
C000
C020
C030
C030
ENDCHAR
STARTCHAR N
ENCODING 78
SWIDTH 722 0
DWIDTH 12 0
BBX 11 12 0 0
BITMAP
8040
C060
E060
F060
F060
D860
C460
C240
C3C0
C1E0
C0E0
C060
ENDCHAR
STARTCHAR O
ENCODING 79
SWIDTH 777 0
DWIDTH 12 0
BBX 12 12 0 0
BITMAP
0300
27C0
70E0
6060
C030
C030
C020
C000
4040
60E0
3FC0
0F00
ENDCHAR
STARTCHAR P
ENCODING 80
SWIDTH 555 0
DWIDTH 9 0
BBX 8 12 0 0
BITMAP
C0
E6
C7
C3
C3
C7
E6
C0
C0
C0
C0
C0
ENDCHAR
STARTCHAR Q
ENCODING 81
SWIDTH 777 0
DWIDTH 12 0
BBX 12 12 0 0
BITMAP
0300
27C0
70E0
6060
C030
C030
C020
C000
41C0
60E0
3FF0
0F20
ENDCHAR
STARTCHAR R
ENCODING 82
SWIDTH 555 0
DWIDTH 9 0
BBX 8 12 0 0
BITMAP
C0
E4
CE
C6
CE
FC
E0
C0
C0
C6
C6
C7
ENDCHAR
STARTCHAR S
ENCODING 83
SWIDTH 555 0
DWIDTH 9 0
BBX 8 11 0 0
BITMAP
26
74
60
70
38
06
03
43
E7
7E
3C
ENDCHAR
STARTCHAR T
ENCODING 84
SWIDTH 610 0
DWIDTH 10 0
BBX 9 12 0 0
BITMAP
C380
E780
0800
0800
0800
0800
0000
0000
0000
0000
0800
0800
ENDCHAR
STARTCHAR U
ENCODING 85
SWIDTH 722 0
DWIDTH 12 0
BBX 11 12 0 0
BITMAP
C040
C060
C060
C060
C060
C060
C060
C040
40C0
61C0
3F80
0E00
ENDCHAR
STARTCHAR V
ENCODING 86
SWIDTH 666 0
DWIDTH 11 0
BBX 10 12 0 0
BITMAP
C0C0
C0C0
6180
6180
6180
3300
2300
0300
0200
0600
0C00
0C00
ENDCHAR
STARTCHAR W
ENCODING 87
SWIDTH 1055 0
DWIDTH 17 0
BBX 16 12 0 0
BITMAP
C183
C183
C3C3
63C6
63C6
6666
6666
0000
0000
0000
1818
1818
ENDCHAR
STARTCHAR X
ENCODING 88
SWIDTH 555 0
DWIDTH 9 0
BBX 8 12 0 0
BITMAP
C3
C3
66
66
3C
3C
00
00
42
66
C3
C3
ENDCHAR
STARTCHAR Y
ENCODING 89
SWIDTH 610 0
DWIDTH 10 0
BBX 9 12 0 0
BITMAP
C180
C180
6300
6300
3600
3600
0400
0000
0000
0000
0800
0800
ENDCHAR
STARTCHAR Z
ENCODING 90
SWIDTH 610 0
DWIDTH 10 0
BBX 9 12 0 0
BITMAP
C380
E700
0600
0600
0C00
0800
0000
0000
0000
6000
FF80
FF80
ENDCHAR
STARTCHAR bracketleft
ENCODING 91
SWIDTH 277 0
DWIDTH 4 0
BBX 4 15 0 -3
BITMAP
C0
E0
C0
C0
C0
C0
C0
C0
C0
C0
C0
C0
C0
F0
E0
ENDCHAR
STARTCHAR backslash
ENCODING 92
SWIDTH 555 0
DWIDTH 9 0
BBX 8 12 0 0
BITMAP
C0
60
70
30
30
10
00
00
00
06
06
07
ENDCHAR
STARTCHAR bracketright
ENCODING 93
SWIDTH 277 0
DWIDTH 4 0
BBX 4 15 0 -3
BITMAP
C0
E0
30
30
30
30
20
00
00
20
30
30
30
F0
E0
ENDCHAR
STARTCHAR asciicircum
ENCODING 94
SWIDTH 555 0
DWIDTH 9 0
BBX 8 3 0 7
BITMAP
3C
7E
E7
ENDCHAR
STARTCHAR underscore
ENCODING 95
SWIDTH 388 0
DWIDTH 6 0
BBX 5 2 0 0
BITMAP
F8
F8
ENDCHAR
STARTCHAR a
ENCODING 97
SWIDTH 500 0
DWIDTH 8 0
BBX 7 9 0 0
BITMAP
38
7C
46
06
42
C2
C6
FE
76
ENDCHAR
STARTCHAR b
ENCODING 98
SWIDTH 555 0
DWIDTH 9 0
BBX 8 12 0 0
BITMAP
C0
C0
C0
DC
FE
E7
C3
C3
C3
E7
FE
DC
ENDCHAR
STARTCHAR c
ENCODING 99
SWIDTH 500 0
DWIDTH 8 0
BBX 7 9 0 0
BITMAP
3C
7E
E6
C0
C0
C0
E6
7E
3C
ENDCHAR
STARTCHAR d
ENCODING 100
SWIDTH 555 0
DWIDTH 9 0
BBX 8 12 0 0
BITMAP
03
03
03
3B
7F
E7
C3
C3
C3
E7
7F
3B
ENDCHAR
STARTCHAR e
ENCODING 101
SWIDTH 500 0
DWIDTH 8 0
BBX 7 9 0 0
BITMAP
38
7C
EE
C6
C2
C0
E2
7E
3C
ENDCHAR
STARTCHAR f
ENCODING 102
SWIDTH 388 0
DWIDTH 6 0
BBX 5 11 0 0
BITMAP
60
60
F8
F8
60
60
40
40
60
60
60
ENDCHAR
STARTCHAR g
ENCODING 103
SWIDTH 500 0
DWIDTH 8 0
BBX 7 12 0 -3
BITMAP
3E
7E
6C
64
40
40
20
7C
C6
C6
FE
64
ENDCHAR
STARTCHAR h
ENCODING 104
SWIDTH 500 0
DWIDTH 8 0
BBX 7 12 0 0
BITMAP
C0
C0
C0
D8
FC
EE
C6
C2
C2
C6
C6
C6
ENDCHAR
STARTCHAR i
ENCODING 105
SWIDTH 166 0
DWIDTH 3 0
BBX 2 12 0 0
BITMAP
C0
C0
00
C0
C0
C0
C0
C0
C0
C0
C0
C0
ENDCHAR
STARTCHAR j
ENCODING 106
SWIDTH 277 0
DWIDTH 4 0
BBX 4 14 0 -3
BITMAP
20
00
30
30
30
20
00
00
20
30
30
30
F0
E0
ENDCHAR
STARTCHAR k
ENCODING 107
SWIDTH 555 0
DWIDTH 9 0
BBX 8 12 0 0
BITMAP
C0
C0
C0
CE
CC
D8
E0
C0
C0
C4
CE
C7
ENDCHAR
STARTCHAR l
ENCODING 108
SWIDTH 277 0
DWIDTH 4 0
BBX 4 12 0 0
BITMAP
C0
C0
C0
C0
C0
C0
C0
C0
C0
C0
F0
70
ENDCHAR
STARTCHAR m
ENCODING 109
SWIDTH 722 0
DWIDTH 12 0
BBX 11 9 0 0
BITMAP
DBC0
FFE0
CC60
C460
C040
C040
C460
CC60
CC60
ENDCHAR
STARTCHAR n
ENCODING 110
SWIDTH 500 0
DWIDTH 8 0
BBX 7 9 0 0
BITMAP
D8
FC
EE
C6
C2
C2
C6
C6
C6
ENDCHAR
STARTCHAR o
ENCODING 111
SWIDTH 610 0
DWIDTH 10 0
BBX 9 9 0 0
BITMAP
3E00
7F00
E380
C180
C180
C180
E380
7F00
3E00
ENDCHAR
STARTCHAR p
ENCODING 112
SWIDTH 555 0
DWIDTH 9 0
BBX 8 12 0 -3
BITMAP
DC
FE
E7
C3
C3
C3
E7
FE
DC
C0
C0
C0
ENDCHAR
STARTCHAR q
ENCODING 113
SWIDTH 555 0
DWIDTH 9 0
BBX 8 12 0 -3
BITMAP
3B
7F
E7
C3
C3
C3
E7
7F
3B
03
03
03
ENDCHAR
STARTCHAR r
ENCODING 114
SWIDTH 333 0
DWIDTH 5 0
BBX 4 9 0 0
BITMAP
D0
F0
E0
C0
C0
C0
C0
C0
C0
ENDCHAR
STARTCHAR s
ENCODING 115
SWIDTH 444 0
DWIDTH 7 0
BBX 6 9 0 0
BITMAP
78
FC
C4
C0
C0
00
84
FC
78
ENDCHAR
STARTCHAR t
ENCODING 116
SWIDTH 388 0
DWIDTH 6 0
BBX 5 11 0 0
BITMAP
60
60
F8
F8
60
60
40
40
60
78
38
ENDCHAR
STARTCHAR u
ENCODING 117
SWIDTH 500 0
DWIDTH 8 0
BBX 7 9 0 0
BITMAP
C6
C6
C6
C6
C2
C2
E6
7E
36
ENDCHAR
STARTCHAR v
ENCODING 118
SWIDTH 555 0
DWIDTH 9 0
BBX 8 9 0 0
BITMAP
C3
C3
66
66
42
00
24
18
18
ENDCHAR
STARTCHAR w
ENCODING 119
SWIDTH 888 0
DWIDTH 14 0
BBX 13 9 0 0
BITMAP
C208
C208
6710
6700
4300
0180
25A0
18E0
18E0
ENDCHAR
STARTCHAR x
ENCODING 120
SWIDTH 444 0
DWIDTH 7 0
BBX 6 9 0 0
BITMAP
CC
CC
68
60
00
40
60
CC
CC
ENDCHAR
STARTCHAR y
ENCODING 121
SWIDTH 555 0
DWIDTH 9 0
BBX 8 12 0 -3
BITMAP
C3
C3
66
66
42
00
24
18
18
10
F0
E0
ENDCHAR
STARTCHAR z
ENCODING 122
SWIDTH 500 0
DWIDTH 8 0
BBX 7 9 0 0
BITMAP
FE
FC
08
00
00
00
60
FE
FE
ENDCHAR
STARTCHAR braceleft
ENCODING 123
SWIDTH 277 0
DWIDTH 4 0
BBX 3 14 0 -3
BITMAP
60
60
60
60
60
60
C0
40
60
60
60
60
60
20
ENDCHAR
STARTCHAR bar
ENCODING 124
SWIDTH 166 0
DWIDTH 3 0
BBX 2 15 0 -3
BITMAP
C0
C0
C0
C0
C0
C0
C0
C0
C0
C0
C0
C0
C0
C0
C0
ENDCHAR
STARTCHAR braceright
ENCODING 125
SWIDTH 277 0
DWIDTH 4 0
BBX 3 15 0 -3
BITMAP
C0
60
60
60
60
60
60
00
40
60
60
60
60
60
C0
ENDCHAR
STARTCHAR asciitilde
ENCODING 126
SWIDTH 388 0
DWIDTH 6 0
BBX 2 2 0 3
BITMAP
40
80
ENDCHAR
STARTCHAR exclamdown
ENCODING 161
SWIDTH 166 0
DWIDTH 3 0
BBX 2 12 0 -3
BITMAP
C0
C0
00
C0
C0
C0
C0
C0
C0
C0
C0
C0
ENDCHAR
STARTCHAR cent
ENCODING 162
SWIDTH 55 0
DWIDTH 1 0
BBX 1 1 0 0
BITMAP
00
ENDCHAR
STARTCHAR sterling
ENCODING 163
SWIDTH 610 0
DWIDTH 10 0
BBX 9 11 0 0
BITMAP
0600
3700
3300
3000
3000
E400
C000
4000
6000
FF80
FF00
ENDCHAR
STARTCHAR section
ENCODING 167
SWIDTH 555 0
DWIDTH 9 0
BBX 8 11 0 0
BITMAP
26
74
60
78
3C
26
02
43
E7
7E
3C
ENDCHAR
STARTCHAR copyright
ENCODING 169
SWIDTH 500 0
DWIDTH 8 0
BBX 7 7 0 2
BITMAP
38
44
92
A2
82
40
20
ENDCHAR
STARTCHAR guillemotleft
ENCODING 171
SWIDTH 555 0
DWIDTH 9 0
BBX 7 4 1 2
BITMAP
4E
84
84
4E
ENDCHAR
STARTCHAR logicalnot
ENCODING 172
SWIDTH 500 0
DWIDTH 8 0
BBX 7 3 0 2
BITMAP
C2
02
06
ENDCHAR
STARTCHAR uni00AD
ENCODING 173
SWIDTH 388 0
DWIDTH 6 0
BBX 2 1 0 4
BITMAP
C0
ENDCHAR
STARTCHAR registered
ENCODING 174
SWIDTH 500 0
DWIDTH 8 0
BBX 7 7 0 2
BITMAP
38
44
B2
A2
82
40
20
ENDCHAR
STARTCHAR degree
ENCODING 176
SWIDTH 388 0
DWIDTH 6 0
BBX 5 6 0 6
BITMAP
40
E0
C8
C8
F8
70
ENDCHAR
STARTCHAR plusminus
ENCODING 177
SWIDTH 388 0
DWIDTH 6 0
BBX 5 8 0 0
BITMAP
30
30
E0
C0
00
00
F8
F8
ENDCHAR
STARTCHAR uni00B2
ENCODING 178
SWIDTH 277 0
DWIDTH 4 0
BBX 4 5 0 7
BITMAP
40
80
20
40
F0
ENDCHAR
STARTCHAR uni00B3
ENCODING 179
SWIDTH 277 0
DWIDTH 4 0
BBX 4 5 0 7
BITMAP
C0
20
60
10
E0
ENDCHAR
STARTCHAR paragraph
ENCODING 182
SWIDTH 555 0
DWIDTH 9 0
BBX 8 12 0 0
BITMAP
03
67
FB
FB
FB
7B
23
03
03
03
0B
0B
ENDCHAR
STARTCHAR periodcentered
ENCODING 183
SWIDTH 110 0
DWIDTH 2 0
BBX 1 1 0 5
BITMAP
80
ENDCHAR
STARTCHAR uni00B9
ENCODING 185
SWIDTH 166 0
DWIDTH 3 0
BBX 2 5 0 7
BITMAP
40
C0
40
40
40
ENDCHAR
STARTCHAR guillemotright
ENCODING 187
SWIDTH 555 0
DWIDTH 9 0
BBX 7 4 0 2
BITMAP
E4
42
42
E4
ENDCHAR
STARTCHAR onequarter
ENCODING 188
SWIDTH 610 0
DWIDTH 10 0
BBX 9 12 0 0
BITMAP
4300
E600
6E00
6C00
6C00
6800
0000
0300
0300
6300
6F80
E300
ENDCHAR
STARTCHAR onehalf
ENCODING 189
SWIDTH 610 0
DWIDTH 10 0
BBX 9 12 0 0
BITMAP
4300
E600
6E00
6C00
6C00
6800
0000
0300
0180
6300
6780
EF80
ENDCHAR
STARTCHAR threequarters
ENCODING 190
SWIDTH 610 0
DWIDTH 10 0
BBX 9 12 0 0
BITMAP
C300
2600
6E00
3C00
FC00
6800
0000
0300
0300
6300
6F80
E300
ENDCHAR
STARTCHAR questiondown
ENCODING 191
SWIDTH 500 0
DWIDTH 8 0
BBX 7 12 0 -3
BITMAP
10
10
00
00
00
40
E0
C0
C6
EE
7C
20
ENDCHAR
STARTCHAR multiply
ENCODING 215
SWIDTH 444 0
DWIDTH 7 0
BBX 6 6 0 1
BITMAP
CC
E4
40
40
E4
CC
ENDCHAR
STARTCHAR divide
ENCODING 247
SWIDTH 388 0
DWIDTH 6 0
BBX 4 7 0 1
BITMAP
30
30
00
C0
00
20
30
ENDCHAR
STARTCHAR uni1E9E
ENCODING 7838
SWIDTH 555 0
DWIDTH 9 0
BBX 8 11 0 0
BITMAP
64
EE
C6
CE
CC
C6
C3
C3
C7
DE
DC
ENDCHAR
STARTCHAR emdash
ENCODING 8212
SWIDTH 500 0
DWIDTH 8 0
BBX 7 1 0 4
BITMAP
C2
ENDCHAR
STARTCHAR quoteleft
ENCODING 8216
SWIDTH 166 0
DWIDTH 3 0
BBX 2 4 0 8
BITMAP
40
80
C0
C0
ENDCHAR
STARTCHAR quoteright
ENCODING 8217
SWIDTH 166 0
DWIDTH 3 0
BBX 2 4 0 8
BITMAP
C0
C0
40
80
ENDCHAR
STARTCHAR quotesinglbase
ENCODING 8218
SWIDTH 166 0
DWIDTH 3 0
BBX 2 4 0 -2
BITMAP
C0
C0
40
80
ENDCHAR
STARTCHAR quotereversed
ENCODING 8219
SWIDTH 166 0
DWIDTH 3 0
BBX 2 4 0 8
BITMAP
C0
C0
80
40
ENDCHAR
STARTCHAR quotedblleft
ENCODING 8220
SWIDTH 333 0
DWIDTH 5 0
BBX 4 4 0 8
BITMAP
40
80
D0
D0
ENDCHAR
STARTCHAR quotedblright
ENCODING 8221
SWIDTH 333 0
DWIDTH 5 0
BBX 4 4 0 8
BITMAP
C0
C0
40
90
ENDCHAR
STARTCHAR quotedblbase
ENCODING 8222
SWIDTH 333 0
DWIDTH 5 0
BBX 4 4 0 -2
BITMAP
D0
D0
40
90
ENDCHAR
STARTCHAR dagger
ENCODING 8224
SWIDTH 388 0
DWIDTH 6 0
BBX 5 11 0 0
BITMAP
20
30
F8
F8
30
20
00
00
20
30
30
ENDCHAR
STARTCHAR bullet
ENCODING 8226
SWIDTH 166 0
DWIDTH 3 0
BBX 2 2 0 4
BITMAP
C0
C0
ENDCHAR
STARTCHAR ellipsis
ENCODING 8230
SWIDTH 500 0
DWIDTH 8 0
BBX 7 2 0 0
BITMAP
D6
D6
ENDCHAR
STARTCHAR guilsinglleft
ENCODING 8249
SWIDTH 333 0
DWIDTH 5 0
BBX 2 4 1 2
BITMAP
40
80
80
40
ENDCHAR
STARTCHAR guilsinglright
ENCODING 8250
SWIDTH 333 0
DWIDTH 5 0
BBX 3 4 0 2
BITMAP
E0
40
40
E0
ENDCHAR
STARTCHAR uni2074
ENCODING 8308
SWIDTH 333 0
DWIDTH 5 0
BBX 4 4 0 7
BITMAP
20
50
F0
10
ENDCHAR
STARTCHAR Euro
ENCODING 8364
SWIDTH 722 0
DWIDTH 12 0
BBX 11 12 0 0
BITMAP
0380
07E0
1860
1000
7F80
FF00
2000
4380
0000
0060
0FE0
0780
ENDCHAR
STARTCHAR trademark
ENCODING 8482
SWIDTH 555 0
DWIDTH 9 0
BBX 8 5 0 7
BITMAP
C1
43
45
41
41
ENDCHAR
STARTCHAR .notdef
ENCODING -1
SWIDTH 610 0
DWIDTH 10 0
BBX 9 12 0 0
BITMAP
FF80
0080
0080
2280
0080
0080
0080
1480
0080
0080
0080
8080
ENDCHAR
ENDFONT
