STARTFONT 2.1
COMMENT 
COMMENT This file has been produced by ttf2bdf written by Subhabrata Biswas
COMMENT 
COMMENT For comments, questions, bug reports, send a mail to
COMMENT                                           subhabrata.biswas@usa.net
COMMENT 
FONT -*-Classic SWT PIS-Medium-R-Normal--13-100-96-96-c-8--fontspecific
SIZE 10 96 96
FONTBOUNDINGBOX 8 13 0 0
STARTPROPERTIES 15
FOUNDRY "Misc"
FAMILY_NAME "Classic SWT PIS"
WEIGHT_NAME "Medium"
SLANT "R"
SETWIDTH_NAME "Normal"
PIXEL_SIZE 7
POINT_SIZE 100
RESOLUTION_X 96
RESOLUTION_Y 96
SPACING "C"
CHARSET_ENCODING "fontspecific"
FONT_ASCENT 10
FONT_DESCENT 3
DEFAULT_CHAR 31
COPYRIGHT "You may wish to put your copyright here"
ENDPROPERTIES
CHARS 93
STARTCHAR C0030
ENCODING 30
SWIDTH 675 0
DWIDTH 9 0
BBX 8 10 0 0
BITMAP
FF
83
C5
A9
91
91
A9
C5
83
FF
ENDCHAR
STARTCHAR C0031
ENCODING 31
SWIDTH 675 0
DWIDTH 9 0
BBX 8 10 0 0
BITMAP
FF
83
C5
A9
91
91
A9
C5
83
FF
ENDCHAR
STARTCHAR C0032- 
ENCODING 32
SWIDTH 525 0
DWIDTH 7 0
BBX 1 1 0 -1
BITMAP
00
ENDCHAR
STARTCHAR C0033-!
ENCODING 33
SWIDTH 675 0
DWIDTH 9 0
BBX 8 10 0 0
BITMAP
FF
83
C5
A9
91
91
A9
C5
83
FF
ENDCHAR
STARTCHAR C0034-"
ENCODING 34
SWIDTH 675 0
DWIDTH 9 0
BBX 8 10 0 0
BITMAP
FF
83
C5
A9
91
91
A9
C5
83
FF
ENDCHAR
STARTCHAR C0035-#
ENCODING 35
SWIDTH 675 0
DWIDTH 9 0
BBX 8 10 0 0
BITMAP
FF
83
C5
A9
91
91
A9
C5
83
FF
ENDCHAR
STARTCHAR C0036-$
ENCODING 36
SWIDTH 675 0
DWIDTH 9 0
BBX 8 10 0 0
BITMAP
FF
83
C5
A9
91
91
A9
C5
83
FF
ENDCHAR
STARTCHAR C0037-%
ENCODING 37
SWIDTH 675 0
DWIDTH 9 0
BBX 8 10 0 0
BITMAP
FF
83
C5
A9
91
91
A9
C5
83
FF
ENDCHAR
STARTCHAR C0038-&
ENCODING 38
SWIDTH 675 0
DWIDTH 9 0
BBX 7 10 0 0
BITMAP
60
90
90
90
20
60
92
8C
88
72
ENDCHAR
STARTCHAR C0039-'
ENCODING 39
SWIDTH 675 0
DWIDTH 9 0
BBX 8 10 0 0
BITMAP
FF
83
C5
A9
91
91
A9
C5
83
FF
ENDCHAR
STARTCHAR C0040-(
ENCODING 40
SWIDTH 450 0
DWIDTH 6 0
BBX 4 10 0 0
BITMAP
10
20
60
80
80
80
80
20
40
10
ENDCHAR
STARTCHAR C0041-)
ENCODING 41
SWIDTH 450 0
DWIDTH 6 0
BBX 4 10 0 0
BITMAP
80
20
60
10
10
10
10
20
40
80
ENDCHAR
STARTCHAR C0042-*
ENCODING 42
SWIDTH 675 0
DWIDTH 9 0
BBX 8 10 0 0
BITMAP
FF
83
C5
A9
91
91
A9
C5
83
FF
ENDCHAR
STARTCHAR C0043-+
ENCODING 43
SWIDTH 675 0
DWIDTH 9 0
BBX 8 10 0 0
BITMAP
FF
83
C5
A9
91
91
A9
C5
83
FF
ENDCHAR
STARTCHAR C0044-,
ENCODING 44
SWIDTH 300 0
DWIDTH 4 0
BBX 3 4 0 0
BITMAP
60
20
40
80
ENDCHAR
STARTCHAR C0045--
ENCODING 45
SWIDTH 675 0
DWIDTH 9 0
BBX 8 10 0 0
BITMAP
FF
83
C5
A9
91
91
A9
C5
83
FF
ENDCHAR
STARTCHAR C0046-.
ENCODING 46
SWIDTH 225 0
DWIDTH 3 0
BBX 1 1 0 0
BITMAP
80
ENDCHAR
STARTCHAR C0047-/
ENCODING 47
SWIDTH 675 0
DWIDTH 9 0
BBX 7 8 0 1
BITMAP
02
02
0C
10
10
60
80
80
ENDCHAR
STARTCHAR C0048-0
ENCODING 48
SWIDTH 675 0
DWIDTH 9 0
BBX 7 10 0 0
BITMAP
7C
82
82
82
82
82
82
82
82
7C
ENDCHAR
STARTCHAR C0049-1
ENCODING 49
SWIDTH 675 0
DWIDTH 9 0
BBX 5 10 1 0
BITMAP
20
60
E0
20
20
20
20
20
20
F8
ENDCHAR
STARTCHAR C0050-2
ENCODING 50
SWIDTH 675 0
DWIDTH 9 0
BBX 7 10 0 0
BITMAP
7C
82
82
02
0C
04
10
20
40
FE
ENDCHAR
STARTCHAR C0051-3
ENCODING 51
SWIDTH 675 0
DWIDTH 9 0
BBX 7 10 0 0
BITMAP
FE
04
0C
10
0C
04
02
82
82
7C
ENDCHAR
STARTCHAR C0052-4
ENCODING 52
SWIDTH 675 0
DWIDTH 9 0
BBX 7 10 0 0
BITMAP
0C
14
1C
6C
8C
84
FE
0C
08
0C
ENDCHAR
STARTCHAR C0053-5
ENCODING 53
SWIDTH 675 0
DWIDTH 9 0
BBX 7 10 0 0
BITMAP
FE
80
80
FC
02
02
02
82
82
7C
ENDCHAR
STARTCHAR C0054-6
ENCODING 54
SWIDTH 675 0
DWIDTH 9 0
BBX 7 10 0 0
BITMAP
7C
82
82
80
BC
F4
82
82
82
7C
ENDCHAR
STARTCHAR C0055-7
ENCODING 55
SWIDTH 675 0
DWIDTH 9 0
BBX 7 10 0 0
BITMAP
FE
82
82
0C
10
10
10
10
10
10
ENDCHAR
STARTCHAR C0056-8
ENCODING 56
SWIDTH 675 0
DWIDTH 9 0
BBX 7 10 0 0
BITMAP
7C
82
82
82
3C
74
82
82
82
7C
ENDCHAR
STARTCHAR C0057-9
ENCODING 57
SWIDTH 675 0
DWIDTH 9 0
BBX 7 10 0 0
BITMAP
7C
82
82
82
3E
76
02
82
82
7C
ENDCHAR
STARTCHAR C0058-:
ENCODING 58
SWIDTH 225 0
DWIDTH 3 0
BBX 1 7 0 0
BITMAP
80
00
00
00
00
00
80
ENDCHAR
STARTCHAR C0059-;
ENCODING 59
SWIDTH 675 0
DWIDTH 9 0
BBX 8 10 0 0
BITMAP
FF
83
C5
A9
91
91
A9
C5
83
FF
ENDCHAR
STARTCHAR C0060-<
ENCODING 60
SWIDTH 675 0
DWIDTH 9 0
BBX 8 10 0 0
BITMAP
FF
83
C5
A9
91
91
A9
C5
83
FF
ENDCHAR
STARTCHAR C0061-=
ENCODING 61
SWIDTH 675 0
DWIDTH 9 0
BBX 8 10 0 0
BITMAP
FF
83
C5
A9
91
91
A9
C5
83
FF
ENDCHAR
STARTCHAR C0062->
ENCODING 62
SWIDTH 675 0
DWIDTH 9 0
BBX 8 10 0 0
BITMAP
FF
83
C5
A9
91
91
A9
C5
83
FF
ENDCHAR
STARTCHAR C0063-?
ENCODING 63
SWIDTH 675 0
DWIDTH 9 0
BBX 8 10 0 0
BITMAP
FF
83
C5
A9
91
91
A9
C5
83
FF
ENDCHAR
STARTCHAR C0064-@
ENCODING 64
SWIDTH 675 0
DWIDTH 9 0
BBX 8 10 0 0
BITMAP
FF
83
C5
A9
91
91
A9
C5
83
FF
ENDCHAR
STARTCHAR C0065-A
ENCODING 65
SWIDTH 675 0
DWIDTH 9 0
BBX 7 10 0 0
BITMAP
10
24
6C
82
82
82
FE
82
82
82
ENDCHAR
STARTCHAR C0066-B
ENCODING 66
SWIDTH 675 0
DWIDTH 9 0
BBX 7 10 0 0
BITMAP
FC
82
82
82
BC
F4
82
82
82
FC
ENDCHAR
STARTCHAR C0067-C
ENCODING 67
SWIDTH 675 0
DWIDTH 9 0
BBX 7 10 0 0
BITMAP
7C
82
82
80
80
80
80
82
82
7C
ENDCHAR
STARTCHAR C0068-D
ENCODING 68
SWIDTH 675 0
DWIDTH 9 0
BBX 7 10 0 0
BITMAP
FC
82
82
82
82
82
82
82
82
FC
ENDCHAR
STARTCHAR C0069-E
ENCODING 69
SWIDTH 675 0
DWIDTH 9 0
BBX 7 10 0 0
BITMAP
FE
80
80
80
BC
F4
80
80
80
FE
ENDCHAR
STARTCHAR C0070-F
ENCODING 70
SWIDTH 675 0
DWIDTH 9 0
BBX 7 10 0 0
BITMAP
FE
80
80
80
BC
F4
80
80
80
80
ENDCHAR
STARTCHAR C0071-G
ENCODING 71
SWIDTH 675 0
DWIDTH 9 0
BBX 7 10 0 0
BITMAP
7C
82
82
80
80
80
9E
82
82
7C
ENDCHAR
STARTCHAR C0072-H
ENCODING 72
SWIDTH 675 0
DWIDTH 9 0
BBX 7 10 0 0
BITMAP
82
82
82
82
BE
F6
82
82
82
82
ENDCHAR
STARTCHAR C0073-I
ENCODING 73
SWIDTH 225 0
DWIDTH 3 0
BBX 1 10 0 0
BITMAP
80
80
80
80
80
80
80
80
80
80
ENDCHAR
STARTCHAR C0074-J
ENCODING 74
SWIDTH 525 0
DWIDTH 7 0
BBX 6 10 0 0
BITMAP
0C
04
0C
0C
0C
04
0C
8C
88
70
ENDCHAR
STARTCHAR C0075-K
ENCODING 75
SWIDTH 675 0
DWIDTH 9 0
BBX 7 10 0 0
BITMAP
82
84
8C
90
A0
E0
90
8C
88
82
ENDCHAR
STARTCHAR C0076-L
ENCODING 76
SWIDTH 675 0
DWIDTH 9 0
BBX 7 10 0 0
BITMAP
80
80
80
80
80
80
80
80
80
FE
ENDCHAR
STARTCHAR C0077-M
ENCODING 77
SWIDTH 675 0
DWIDTH 9 0
BBX 7 10 0 0
BITMAP
82
A6
EE
92
92
92
82
82
82
82
ENDCHAR
STARTCHAR C0078-N
ENCODING 78
SWIDTH 675 0
DWIDTH 9 0
BBX 7 10 0 0
BITMAP
82
82
82
E2
92
92
8E
82
82
82
ENDCHAR
STARTCHAR C0079-O
ENCODING 79
SWIDTH 675 0
DWIDTH 9 0
BBX 7 10 0 0
BITMAP
7C
82
82
82
82
82
82
82
82
7C
ENDCHAR
STARTCHAR C0080-P
ENCODING 80
SWIDTH 675 0
DWIDTH 9 0
BBX 7 10 0 0
BITMAP
FC
82
82
82
BC
F4
80
80
80
80
ENDCHAR
STARTCHAR C0081-Q
ENCODING 81
SWIDTH 675 0
DWIDTH 9 0
BBX 7 10 0 0
BITMAP
7C
82
82
82
82
82
92
8C
88
72
ENDCHAR
STARTCHAR C0082-R
ENCODING 82
SWIDTH 675 0
DWIDTH 9 0
BBX 7 10 0 0
BITMAP
FC
82
82
82
BC
F4
90
8C
88
82
ENDCHAR
STARTCHAR C0083-S
ENCODING 83
SWIDTH 675 0
DWIDTH 9 0
BBX 7 10 0 0
BITMAP
7C
82
82
80
3C
74
02
82
82
7C
ENDCHAR
STARTCHAR C0084-T
ENCODING 84
SWIDTH 675 0
DWIDTH 9 0
BBX 7 10 0 0
BITMAP
FE
10
10
10
10
10
10
10
10
10
ENDCHAR
STARTCHAR C0085-U
ENCODING 85
SWIDTH 675 0
DWIDTH 9 0
BBX 7 10 0 0
BITMAP
82
82
82
82
82
82
82
82
82
7C
ENDCHAR
STARTCHAR C0086-V
ENCODING 86
SWIDTH 675 0
DWIDTH 9 0
BBX 7 10 0 0
BITMAP
82
82
82
82
82
82
82
2C
48
10
ENDCHAR
STARTCHAR C0087-W
ENCODING 87
SWIDTH 675 0
DWIDTH 9 0
BBX 7 10 0 0
BITMAP
82
82
82
92
92
92
92
92
92
6C
ENDCHAR
STARTCHAR C0088-X
ENCODING 88
SWIDTH 675 0
DWIDTH 9 0
BBX 7 10 0 0
BITMAP
82
82
82
6C
10
10
6C
82
82
82
ENDCHAR
STARTCHAR C0089-Y
ENCODING 89
SWIDTH 675 0
DWIDTH 9 0
BBX 7 10 0 0
BITMAP
82
82
82
6C
10
10
10
10
10
10
ENDCHAR
STARTCHAR C0090-Z
ENCODING 90
SWIDTH 675 0
DWIDTH 9 0
BBX 7 10 0 0
BITMAP
FE
02
02
0C
10
10
60
80
80
FE
ENDCHAR
STARTCHAR C0091-[
ENCODING 91
SWIDTH 675 0
DWIDTH 9 0
BBX 8 10 0 0
BITMAP
FF
83
C5
A9
91
91
A9
C5
83
FF
ENDCHAR
STARTCHAR C0092-\
ENCODING 92
SWIDTH 675 0
DWIDTH 9 0
BBX 7 8 0 1
BITMAP
80
80
60
10
10
0C
02
02
ENDCHAR
STARTCHAR C0093-]
ENCODING 93
SWIDTH 675 0
DWIDTH 9 0
BBX 8 10 0 0
BITMAP
FF
83
C5
A9
91
91
A9
C5
83
FF
ENDCHAR
STARTCHAR C0094-^
ENCODING 94
SWIDTH 675 0
DWIDTH 9 0
BBX 8 10 0 0
BITMAP
FF
83
C5
A9
91
91
A9
C5
83
FF
ENDCHAR
STARTCHAR C0095-_
ENCODING 95
SWIDTH 675 0
DWIDTH 9 0
BBX 8 10 0 0
BITMAP
FF
83
C5
A9
91
91
A9
C5
83
FF
ENDCHAR
STARTCHAR C0096-`
ENCODING 96
SWIDTH 675 0
DWIDTH 9 0
BBX 8 10 0 0
BITMAP
FF
83
C5
A9
91
91
A9
C5
83
FF
ENDCHAR
STARTCHAR C0097-a
ENCODING 97
SWIDTH 675 0
DWIDTH 9 0
BBX 7 7 0 0
BITMAP
7C
02
02
7E
82
82
7E
ENDCHAR
STARTCHAR C0098-b
ENCODING 98
SWIDTH 675 0
DWIDTH 9 0
BBX 7 10 0 0
BITMAP
80
80
80
FC
82
82
82
82
82
FC
ENDCHAR
STARTCHAR C0099-c
ENCODING 99
SWIDTH 675 0
DWIDTH 9 0
BBX 7 7 0 0
BITMAP
7E
80
80
80
80
80
7E
ENDCHAR
STARTCHAR C0100-d
ENCODING 100
SWIDTH 675 0
DWIDTH 9 0
BBX 7 10 0 0
BITMAP
02
02
02
7E
82
82
82
82
82
7E
ENDCHAR
STARTCHAR C0101-e
ENCODING 101
SWIDTH 675 0
DWIDTH 9 0
BBX 7 7 0 0
BITMAP
7C
82
82
FE
80
80
7C
ENDCHAR
STARTCHAR C0102-f
ENCODING 102
SWIDTH 525 0
DWIDTH 7 0
BBX 6 10 0 0
BITMAP
1C
20
60
60
B0
F0
60
20
40
60
ENDCHAR
STARTCHAR C0103-g
ENCODING 103
SWIDTH 675 0
DWIDTH 9 0
BBX 7 7 0 0
BITMAP
7E
82
82
7E
02
02
7C
ENDCHAR
STARTCHAR C0104-h
ENCODING 104
SWIDTH 675 0
DWIDTH 9 0
BBX 7 10 0 0
BITMAP
80
80
80
9C
A2
E2
82
82
82
82
ENDCHAR
STARTCHAR C0105-i
ENCODING 105
SWIDTH 225 0
DWIDTH 3 0
BBX 1 10 0 0
BITMAP
80
00
00
80
80
80
80
80
80
80
ENDCHAR
STARTCHAR C0106-j
ENCODING 106
SWIDTH 450 0
DWIDTH 6 0
BBX 4 10 0 0
BITMAP
10
00
00
10
10
10
10
10
10
E0
ENDCHAR
STARTCHAR C0107-k
ENCODING 107
SWIDTH 525 0
DWIDTH 7 0
BBX 6 10 0 0
BITMAP
80
80
80
8C
90
90
E0
90
90
8C
ENDCHAR
STARTCHAR C0108-l
ENCODING 108
SWIDTH 450 0
DWIDTH 6 0
BBX 4 10 0 0
BITMAP
80
80
80
80
80
80
80
80
80
70
ENDCHAR
STARTCHAR C0109-m
ENCODING 109
SWIDTH 675 0
DWIDTH 9 0
BBX 7 7 0 0
BITMAP
EC
92
92
92
82
82
82
ENDCHAR
STARTCHAR C0110-n
ENCODING 110
SWIDTH 675 0
DWIDTH 9 0
BBX 7 7 0 0
BITMAP
9C
A2
E2
82
82
82
82
ENDCHAR
STARTCHAR C0111-o
ENCODING 111
SWIDTH 675 0
DWIDTH 9 0
BBX 7 7 0 0
BITMAP
7C
82
82
82
82
82
7C
ENDCHAR
STARTCHAR C0112-p
ENCODING 112
SWIDTH 675 0
DWIDTH 9 0
BBX 7 7 0 0
BITMAP
FC
82
82
FC
80
80
80
ENDCHAR
STARTCHAR C0113-q
ENCODING 113
SWIDTH 675 0
DWIDTH 9 0
BBX 7 7 0 0
BITMAP
7E
82
82
7E
02
02
02
ENDCHAR
STARTCHAR C0114-r
ENCODING 114
SWIDTH 525 0
DWIDTH 7 0
BBX 6 7 0 0
BITMAP
9C
A0
E0
80
80
80
80
ENDCHAR
STARTCHAR C0115-s
ENCODING 115
SWIDTH 675 0
DWIDTH 9 0
BBX 7 7 0 0
BITMAP
7E
80
80
7C
02
02
FC
ENDCHAR
STARTCHAR C0116-t
ENCODING 116
SWIDTH 525 0
DWIDTH 7 0
BBX 6 10 0 0
BITMAP
60
20
60
FC
20
60
60
20
40
1C
ENDCHAR
STARTCHAR C0117-u
ENCODING 117
SWIDTH 675 0
DWIDTH 9 0
BBX 7 7 0 0
BITMAP
82
82
82
82
8E
8A
72
ENDCHAR
STARTCHAR C0118-v
ENCODING 118
SWIDTH 675 0
DWIDTH 9 0
BBX 7 7 0 0
BITMAP
82
82
82
82
2C
48
10
ENDCHAR
STARTCHAR C0119-w
ENCODING 119
SWIDTH 675 0
DWIDTH 9 0
BBX 7 7 0 0
BITMAP
82
82
82
92
92
92
6C
ENDCHAR
STARTCHAR C0120-x
ENCODING 120
SWIDTH 675 0
DWIDTH 9 0
BBX 7 7 0 0
BITMAP
82
2C
64
10
2C
48
82
ENDCHAR
STARTCHAR C0121-y
ENCODING 121
SWIDTH 675 0
DWIDTH 9 0
BBX 7 7 0 0
BITMAP
82
82
82
7E
02
02
7C
ENDCHAR
STARTCHAR C0122-z
ENCODING 122
SWIDTH 675 0
DWIDTH 9 0
BBX 7 7 0 0
BITMAP
FE
0C
04
10
20
40
FE
ENDCHAR
ENDFONT

